HIERARCHY
ROOT SpineBase
{
  OFFSET 0.000000 0.000000 0.000000
  CHANNELS 6 Xposition Yposition Zposition Zrotation Xrotation Yrotation
  JOINT SpineMid
  {
    OFFSET -0.000000 31.554757 0.000000
    CHANNELS 3 Zrotation Xrotation Yrotation
    JOINT SpineShoulder
    {
      OFFSET -0.275461 23.405379 -0.877484
      CHANNELS 3 Zrotation Xrotation Yrotation
      JOINT Neck
      {
        OFFSET -0.185320 7.751689 -0.663643
        CHANNELS 3 Zrotation Xrotation Yrotation
        JOINT Head
        {
          OFFSET -1.355852 10.867156 6.219614
          CHANNELS 3 Zrotation Xrotation Yrotation
          End Site
          {
            OFFSET 0 0 0
          }
        }
      }
      JOINT ShoulderLeft
      {
        OFFSET -4.618505 -2.288838 25.306625
        CHANNELS 3 Zrotation Xrotation Yrotation
        JOINT ElbowLeft
        {
          OFFSET -9.437417 -20.560259 -21.476037
          CHANNELS 3 Zrotation Xrotation Yrotation
          JOINT WristLeft
          {
            OFFSET -8.252635 -23.775490 -1.349732
            CHANNELS 3 Zrotation Xrotation Yrotation
            JOINT HandLeft
            {
              OFFSET 5.067781 -7.884967 -1.843818
              CHANNELS 3 Zrotation Xrotation Yrotation
              JOINT HandTipLeft
              {
                OFFSET -0.003746 -0.304802 -0.300971
                CHANNELS 3 Zrotation Xrotation Yrotation
                End Site
                {
                  OFFSET 0 0 0
                }
              }
              JOINT ThumbLeft
              {
                OFFSET -0.249356 -0.103068 -0.655009
                CHANNELS 3 Zrotation Xrotation Yrotation
                End Site
                {
                  OFFSET 0 0 0
                }
              }
            }
          }
        }
      }
      JOINT ShoulderRight
      {
        OFFSET -0.202753 -4.971178 -10.650752
        CHANNELS 3 Zrotation Xrotation Yrotation
        JOINT ElbowRight
        {
          OFFSET -11.189897 -19.214475 -1.636484
          CHANNELS 3 Zrotation Xrotation Yrotation
          JOINT WristRight
          {
            OFFSET 0.225165 -18.462010 10.269923
            CHANNELS 3 Zrotation Xrotation Yrotation
            JOINT HandRight
            {
              OFFSET -0.538335 -6.408649 -5.492069
              CHANNELS 3 Zrotation Xrotation Yrotation
              JOINT HandTipRight
              {
                OFFSET -2.660610 -4.696441 3.207858
                CHANNELS 3 Zrotation Xrotation Yrotation
                End Site
                {
                  OFFSET 0 0 0
                }
              }
              JOINT ThumbRight
              {
                OFFSET -2.171229 0.573407 2.080020
                CHANNELS 3 Zrotation Xrotation Yrotation
                End Site
                {
                  OFFSET 0 0 0
                }
              }
            }
          }
        }
      }
    }
  }
  JOINT HipLeft
  {
    OFFSET -1.925543 1.955143 -2.044170
    CHANNELS 3 Zrotation Xrotation Yrotation
    JOINT KneeLeft
    {
      OFFSET 0.877263 -37.582041 -5.363338
      CHANNELS 3 Zrotation Xrotation Yrotation
      JOINT AnkleLeft
      {
        OFFSET 4.632602 -41.580658 -0.548894
        CHANNELS 3 Zrotation Xrotation Yrotation
        JOINT FootLeft
        {
          OFFSET -5.673822 -4.213217 -2.486789
          CHANNELS 3 Zrotation Xrotation Yrotation
          End Site
          {
            OFFSET 0 0 0
          }
        }
      }
    }
  }
  JOINT HipRight
  {
    OFFSET -0.181691 0.745194 -5.307494
    CHANNELS 3 Zrotation Xrotation Yrotation
    JOINT KneeRight
    {
      OFFSET 9.883214 -35.007801 3.768083
      CHANNELS 3 Zrotation Xrotation Yrotation
      JOINT AnkleRight
      {
        OFFSET 2.567892 -30.414958 1.650254
        CHANNELS 3 Zrotation Xrotation Yrotation
        JOINT FootRight
        {
          OFFSET -10.826791 -3.411650 -4.401562
          CHANNELS 3 Zrotation Xrotation Yrotation
          End Site
          {
            OFFSET 0 0 0
          }
        }
      }
    }
  }
}
MOTION
Frames: 12
Frame Time: 0.033333
78.517799 81.420774 272.046342 0.000000 0.000000 61.880893 -0.000000 0.000000 -61.880893 -0.000000 0.000000 0.000000 -0.000000 0.000000 0.000000 0.000000 0.000000 0.000000 -0.000000 0.000000 0.000000 -0.000000 0.000000 0.000000 -0.000000 0.000000 0.000000 -0.000000 0.000000 0.000000 0.000000 0.000000 0.000000 0.000000 0.000000 0.000000 -0.000000 0.000000 0.000000 -0.000000 0.000000 0.000000 -0.000000 0.000000 0.000000 -0.000000 0.000000 0.000000 0.000000 0.000000 0.000000 0.000000 0.000000 0.000000 -0.000000 0.000000 -61.880893 -0.000000 0.000000 0.000000 -0.000000 0.000000 0.000000 0.000000 0.000000 0.000000 -0.000000 0.000000 -61.880893 -0.000000 0.000000 0.000000 -0.000000 0.000000 0.000000 0.000000 0.000000 0.000000
78.546244 81.494889 272.026463 0.021540 -0.004950 62.435109 -0.005580 0.021385 -62.435107 -0.000000 0.000000 0.000000 -0.000000 0.000000 0.000000 0.000000 0.000000 0.000000 -0.000000 0.000000 0.000000 -0.000000 0.000000 0.000000 -6.094289 -9.544489 -5.524226 5.232432 10.039710 4.555048 0.000000 0.000000 0.000000 0.000000 0.000000 0.000000 -0.000000 0.000000 0.000000 -0.000000 0.000000 0.000000 -0.568150 -0.756311 0.549553 2.629850 4.890220 -1.679440 0.000000 0.000000 0.000000 0.000000 0.000000 0.000000 -0.005580 0.021385 -62.435107 -0.000000 0.000000 0.000000 -6.302293 2.368029 0.611742 0.000000 0.000000 0.000000 -0.005580 0.021385 -62.435107 -0.000000 0.000000 0.000000 -0.000000 0.000000 0.000000 0.000000 0.000000 0.000000
78.569686 81.555783 272.009742 0.036818 -0.011374 62.806686 -0.006709 0.037946 -62.806680 -0.000000 0.000000 0.000000 -0.000000 0.000000 0.000000 0.000000 0.000000 0.000000 0.081440 -0.781009 0.276041 -0.077683 0.781391 -0.274956 -12.866660 -17.851730 -11.829336 10.618714 19.945764 6.798843 0.000000 0.000000 0.000000 0.000000 0.000000 0.000000 -0.000000 0.000000 0.000000 -0.000000 0.000000 0.000000 -1.075199 -1.374677 1.033815 5.048552 8.935739 -3.304097 0.000000 0.000000 0.000000 0.000000 0.000000 0.000000 -0.006709 0.037946 -62.806680 -0.000000 0.000000 0.000000 -10.551470 3.915455 1.164036 0.000000 0.000000 0.000000 -0.006709 0.037946 -62.806680 -0.000000 0.000000 0.000000 -0.000000 0.000000 0.000000 0.000000 0.000000 0.000000
78.588127 81.603456 271.996178 0.045803 -0.019272 63.015122 -0.003609 0.049561 -63.015112 -0.000000 0.000000 0.000000 -0.000000 0.000000 0.000000 0.000000 0.000000 0.000000 0.092046 -1.001956 0.368078 -0.085621 1.002526 -0.366524 -19.390894 -24.023576 -18.005282 14.360777 28.182554 8.615857 0.000000 0.000000 0.000000 0.000000 0.000000 0.000000 -0.000000 0.000000 0.000000 -0.000000 0.000000 0.000000 -1.514012 -1.836234 1.445720 7.146618 12.076486 -4.759132 0.000000 0.000000 0.000000 0.000000 0.000000 0.000000 0.137522 1.133912 -62.873467 1.598206 -1.045697 -0.184522 -14.188338 5.351088 1.762028 0.000000 0.000000 0.000000 -0.003609 0.049561 -63.015112 -0.000000 0.000000 0.000000 -0.000000 0.000000 0.000000 0.000000 0.000000 0.000000
78.601565 81.637908 271.985772 0.048470 -0.028645 63.072376 0.003589 0.056187 -63.072365 -0.000000 0.000000 0.000000 -0.000000 0.000000 0.000000 0.000000 0.000000 0.000000 0.081891 -1.109779 0.429153 -0.073591 1.110360 -0.427647 -24.748187 -28.020315 -23.125499 17.035965 34.202563 9.611375 0.000000 0.000000 0.000000 0.000000 0.000000 0.000000 -0.000000 0.000000 0.000000 -0.000000 0.000000 0.000000 -1.878314 -2.125228 1.779208 8.823898 14.301647 -5.939333 0.000000 0.000000 0.000000 0.000000 0.000000 0.000000 0.168861 1.355194 -62.902739 1.930029 -1.256206 -0.218470 -16.368082 6.133577 2.144628 0.000000 0.000000 0.000000 0.003589 0.056187 -63.072365 -0.000000 0.000000 0.000000 -0.000000 0.000000 0.000000 0.000000 0.000000 0.000000
78.610001 81.659139 271.978524 0.044806 -0.039487 62.984158 0.014825 0.057853 -62.984150 -0.000000 0.000000 0.000000 -0.000000 0.000000 0.000000 0.000000 0.000000 0.000000 0.050705 -1.104458 0.459215 -0.041860 1.104828 -0.458323 -28.362973 -30.262949 -26.598246 18.715996 37.949753 10.082093 0.000000 0.000000 0.000000 0.000000 0.000000 0.000000 0.723140 0.297794 -0.237716 -0.721908 -0.300768 0.233942 -2.162806 -2.229819 2.029350 10.000290 15.628547 -6.761116 0.000000 0.000000 0.000000 0.000000 0.000000 0.000000 0.189011 1.498905 -62.795827 2.162103 -1.397535 -0.240984 -17.850343 6.660592 2.417547 0.000000 0.000000 0.000000 0.014825 0.057853 -62.984150 -0.000000 0.000000 0.000000 -0.000000 0.000000 0.000000 0.000000 0.000000 0.000000
78.601092 81.669767 271.982420 0.015486 -0.062321 62.725046 0.048295 0.042324 -62.725055 -0.000000 0.000000 0.000000 -0.000000 0.000000 0.000000 0.000000 0.000000 0.000000 -0.000000 0.000000 0.000000 -0.000000 0.000000 0.000000 -23.568806 -27.212924 -21.994955 16.451941 32.861238 9.461196 0.000000 0.000000 0.000000 0.000000 0.000000 0.000000 0.833468 0.349101 -0.277937 -0.397010 -1.049030 0.508823 -3.258616 -1.323367 2.380472 11.053388 16.232826 -7.905481 0.000000 0.000000 0.000000 0.000000 0.000000 0.000000 0.200214 1.644467 -62.513872 2.486648 -1.524476 -0.266303 -20.868051 7.645757 3.010241 0.000000 0.000000 0.000000 0.048295 0.042324 -62.725055 -0.000000 0.000000 0.000000 -0.000000 0.000000 0.000000 0.000000 0.000000 0.000000
78.601454 81.666314 271.983319 0.003723 -0.075561 62.280713 0.065158 0.038442 -62.280733 -0.000000 0.000000 0.000000 -0.000000 0.000000 0.000000 0.000000 0.000000 0.000000 -0.000000 0.000000 0.000000 -0.000000 0.000000 0.000000 -23.568834 -27.212803 -21.994822 16.439485 32.829430 9.484475 0.000000 0.000000 0.000000 0.000000 0.000000 0.000000 -0.000000 0.000000 0.000000 0.539432 -0.752847 0.293346 -3.025946 -0.745926 1.990675 9.868481 14.639470 -6.926283 0.000000 0.000000 0.000000 0.000000 0.000000 0.000000 0.166316 1.598205 -62.072960 2.478747 -1.461712 -0.263024 -18.657509 6.955524 2.523311 0.000000 0.000000 0.000000 0.065158 0.038442 -62.280733 -1.170348 0.071462 -0.056791 1.170419 -0.070287 0.058238 0.000000 0.000000 0.000000
78.597625 81.646004 271.982213 -0.011797 -0.083561 61.632260 0.079131 0.029322 -61.632288 -0.000000 0.000000 0.000000 -0.000000 0.000000 0.000000 0.000000 0.000000 0.000000 -0.000000 0.000000 0.000000 -0.000000 0.000000 0.000000 -23.568898 -27.212755 -21.994779 16.427411 32.809539 9.504895 0.000000 0.000000 0.000000 0.000000 0.000000 0.000000 -0.000000 0.000000 0.000000 0.540829 -0.741644 0.294229 -2.909233 -1.187413 1.920005 9.442566 15.019761 -7.061085 0.000000 0.000000 0.000000 0.000000 0.000000 0.000000 0.143599 1.517612 -61.432937 2.405038 -1.418119 -0.256973 -18.640232 6.976293 2.514422 0.000000 0.000000 0.000000 0.079131 0.029322 -61.632288 -1.506539 0.169317 -0.065303 -0.916583 0.257490 1.720839 0.000000 0.000000 0.000000
78.604847 81.611342 271.973497 -0.013857 -0.080821 61.074119 0.077441 0.026964 -61.074147 -0.000000 0.000000 0.000000 -0.000000 0.000000 0.000000 0.000000 0.000000 0.000000 -0.000000 0.000000 0.000000 -0.000000 0.000000 0.000000 -23.568824 -27.212775 -21.994789 16.430599 32.840339 9.494326 0.000000 0.000000 0.000000 0.000000 0.000000 0.000000 0.665571 0.396914 -0.291041 -0.188084 -1.113986 0.545545 -3.156406 -0.719812 2.191666 9.352175 15.853821 -8.533796 0.000000 0.000000 0.000000 0.000000 0.000000 0.000000 0.085385 1.247253 -60.908503 2.011408 -1.163568 -0.220524 -18.455217 6.909691 2.465506 0.000000 0.000000 0.000000 0.077441 0.026964 -61.074147 -1.649286 0.158452 -0.073930 2.255485 -0.197891 -0.577986 0.000000 0.000000 0.000000
78.623588 81.593817 271.945841 -0.001264 -0.058648 60.478165 0.051657 0.027799 -60.478178 -0.000000 0.000000 0.000000 -0.000000 0.000000 0.000000 0.000000 0.000000 0.000000 -0.000000 0.000000 0.000000 -0.000000 0.000000 0.000000 -28.449800 -30.343363 -26.720065 18.678692 37.989027 10.202158 0.000000 0.000000 0.000000 0.000000 0.000000 0.000000 0.981875 0.456784 -0.355210 -0.592868 -1.156793 0.556058 -3.539583 -0.854322 2.656664 8.963818 11.429601 -6.119478 0.000000 0.000000 0.000000 0.000000 0.000000 0.000000 0.018007 1.070645 -60.334731 1.736878 -1.028888 -0.199321 -18.318669 6.900283 2.446106 0.000000 0.000000 0.000000 0.051657 0.027799 -60.478178 -1.288804 -0.305872 -0.099275 1.254303 0.616799 -0.840077 0.000000 0.000000 0.000000
78.626872 81.582184 271.929694 -0.008703 -0.056404 59.808830 0.053130 0.020842 -59.808844 -0.000000 0.000000 0.000000 -0.000000 0.000000 0.000000 0.000000 0.000000 0.000000 -0.000000 0.000000 0.000000 -0.000000 0.000000 0.000000 -22.411942 -26.374062 -20.878329 15.869687 31.606882 9.276416 0.000000 0.000000 0.000000 0.000000 0.000000 0.000000 1.292100 0.535304 -0.430488 -1.288100 -0.544860 0.418327 -3.412886 -1.432928 3.027484 8.229331 8.230196 -4.732172 0.000000 0.000000 0.000000 0.000000 0.000000 0.000000 0.053130 0.020842 -59.808844 -0.000000 0.000000 0.000000 -17.476616 6.429391 2.191365 0.000000 0.000000 0.000000 0.053130 0.020842 -59.808844 -1.111832 -0.753988 -0.131363 6.602124 -0.352285 -4.135940 0.000000 0.000000 0.000000
